<svg width="287" height="301" viewBox="0 0 287 301" fill="none" xmlns="http://www.w3.org/2000/svg">
<path fill-rule="evenodd" clip-rule="evenodd" d="M140.731 2.10019C187.883 -2.86964 241.435 2.33053 270.586 39.682C298.83 75.8717 282.067 125.71 272.176 170.525C262.826 212.889 254.116 258.475 217.239 281.39C177.691 305.966 126.978 306.316 84.5589 287.112C42.8083 268.21 13.5298 229.34 3.55157 184.648C-5.93416 142.163 8.70045 99.3414 34.8623 64.527C60.7453 30.0838 97.8557 6.61916 140.731 2.10019Z" fill="#BDBDBD"/>
<path fill-rule="evenodd" clip-rule="evenodd" d="M140.731 2.10019C187.883 -2.86964 241.435 2.33053 270.586 39.682C298.83 75.8717 282.067 125.71 272.176 170.525C262.826 212.889 254.116 258.475 217.239 281.39C177.691 305.966 126.978 306.316 84.5589 287.112C42.8083 268.21 13.5298 229.34 3.55157 184.648C-5.93416 142.163 8.70045 99.3414 34.8623 64.527C60.7453 30.0838 97.8557 6.61916 140.731 2.10019Z" fill="#BABABA"/>
<path fill-rule="evenodd" clip-rule="evenodd" d="M140.731 2.10019C187.883 -2.86964 241.435 2.33053 270.586 39.682C298.83 75.8717 282.067 125.71 272.176 170.525C262.826 212.889 254.116 258.475 217.239 281.39C177.691 305.966 126.978 306.316 84.5589 287.112C42.8083 268.21 13.5298 229.34 3.55157 184.648C-5.93416 142.163 8.70045 99.3414 34.8623 64.527C60.7453 30.0838 97.8557 6.61916 140.731 2.10019Z" fill="url(#paint0_radial_151_1693)"/>
<defs>
<radialGradient id="paint0_radial_151_1693" cx="0" cy="0" r="1" gradientUnits="userSpaceOnUse" gradientTransform="translate(247.366 43.513) rotate(124.827) scale(317.107 575.921)">
<stop stop-color="#00C48C"/>
<stop offset="1" stop-color="#96FFE1" stop-opacity="0"/>
</radialGradient>
</defs>
</svg>
